<?xml version="1.0" standalone="no"?>
<!DOCTYPE svg PUBLIC "-//W3C//DTD SVG 20010904//EN"
 "http://www.w3.org/TR/2001/REC-SVG-20010904/DTD/svg10.dtd">
<svg version="1.0" xmlns="http://www.w3.org/2000/svg"
 width="911.000000pt" height="549.000000pt" viewBox="0 0 911.000000 549.000000"
 preserveAspectRatio="xMidYMid meet">

<g transform="translate(0.000000,549.000000) scale(0.100000,-0.100000)"
fill="#000000" stroke="none">
<path d="M3110 4733 c-36 -96 -1597 -4246 -1609 -4275 l-11 -28 204 0 203 0
816 2163 c448 1189 819 2170 822 2180 7 16 -7 17 -198 17 l-206 0 -21 -57z"/>
<path d="M4595 3674 c-206 -21 -372 -101 -506 -242 -131 -137 -190 -285 -191
-487 -2 -130 12 -205 56 -300 75 -161 197 -259 476 -383 314 -139 346 -159
356 -224 13 -80 -66 -160 -171 -173 -91 -12 -246 40 -438 146 -59 32 -111 59
-115 59 -8 0 -244 -501 -244 -517 0 -12 231 -131 341 -174 175 -69 299 -93
481 -92 127 0 169 4 235 22 265 72 457 248 541 496 22 66 28 103 32 210 5 153
-5 213 -53 314 -78 163 -241 282 -535 391 -269 100 -341 165 -310 279 27 102
158 126 353 64 81 -25 224 -92 299 -139 l38 -24 14 28 c8 15 68 128 135 250
67 123 121 225 121 228 0 2 -55 31 -122 65 -188 94 -358 157 -502 184 -81 16
-229 25 -291 19z"/>
<path d="M7122 3669 c-144 -25 -294 -112 -434 -250 l-88 -87 0 134 0 134 -355
0 -355 0 0 -1125 0 -1125 355 0 355 0 0 723 c0 441 4 736 10 757 62 223 320
227 385 6 13 -42 15 -165 15 -768 l0 -718 355 0 355 0 0 688 c0 430 4 711 11
752 22 137 94 210 207 210 111 0 181 -77 202 -221 5 -35 10 -371 10 -746 l0
-683 355 0 355 0 0 848 c0 490 -5 887 -10 942 -18 168 -70 314 -141 395 -96
109 -252 158 -435 135 -175 -22 -297 -91 -470 -267 -56 -57 -105 -103 -108
-103 -3 0 -6 6 -6 13 0 26 -78 173 -114 214 -98 112 -288 172 -454 142z"/>
<path d="M610 2076 c-158 -34 -282 -165 -311 -330 -30 -173 64 -352 226 -432
55 -27 69 -29 170 -29 97 0 116 3 165 26 86 40 163 118 207 207 36 71 38 81
37 166 -1 119 -26 185 -101 266 -62 67 -145 114 -232 130 -66 12 -91 12 -161
-4z"/>
</g>
</svg>
