<?xml version="1.0" encoding="UTF-8" standalone="no"?>
<svg
   version="1.0"
   width="369.000000pt"
   height="369.000000pt"
   viewBox="0 0 369.000000 369.000000"
   preserveAspectRatio="xMidYMid meet"
   id="svg878"
   sodipodi:docname="open-uri20230921-22-549wq9.svg"
   inkscape:version="1.1.2 (0a00cf5339, 2022-02-04)"
   xmlns:inkscape="http://www.inkscape.org/namespaces/inkscape"
   xmlns:sodipodi="http://sodipodi.sourceforge.net/DTD/sodipodi-0.dtd"
   xmlns="http://www.w3.org/2000/svg"
   xmlns:svg="http://www.w3.org/2000/svg">
  <defs
     id="defs882" />
  <sodipodi:namedview
     id="namedview880"
     pagecolor="#ffffff"
     bordercolor="#666666"
     borderopacity="1.0"
     inkscape:pageshadow="2"
     inkscape:pageopacity="0.0"
     inkscape:pagecheckerboard="0"
     inkscape:document-units="pt"
     showgrid="false"
     inkscape:zoom="1.6219512"
     inkscape:cx="246"
     inkscape:cy="255.24812"
     inkscape:window-width="1920"
     inkscape:window-height="1008"
     inkscape:window-x="0"
     inkscape:window-y="40"
     inkscape:window-maximized="1"
     inkscape:current-layer="svg878" />
  <path
     d="m 158.5,30.9 c -66,12 -114.7,58.7 -128.7,123.5 -1.9,8.5 -2.2,13.3 -2.2,30.6 0,19 0.2,21.4 2.8,32.5 4.7,20 11.5,36.4 21.6,52 6,9.3 7.3,10.5 11.4,10.5 2.6,0 5.9,-2.9 23.4,-20.3 11.2,-11.1 20.8,-21.3 21.3,-22.6 0.8,-1.9 0.1,-4.1 -3.5,-11.7 -7.5,-15.3 -9.1,-22.3 -9.1,-40.4 0,-17.7 1.7,-25.5 8.3,-39 11,-22.5 29.6,-38.2 55.2,-46.6 7.8,-2.5 9.8,-2.8 24.5,-2.8 18.9,-0.1 24.4,1 40.6,8.5 8.6,4 11.1,4.8 13,4 1.3,-0.5 11.5,-10.1 22.7,-21.3 C 281.9,65.4 282.6,64.3 277.3,59.4 273.6,56 259.6,47.6 250.8,43.6 240.5,38.9 227.2,34.5 215.5,32 c -14.4,-3.1 -43.1,-3.6 -57,-1.1 z"
     id="path870"
     style="fill:#dadada;stroke:none;stroke-width:0.1;fill-opacity:1" />
  <path
     d="m 173.1,141.6 c -17.2,4.6 -30,18.7 -33.2,36.3 -4.2,23.8 12.9,47.1 37.7,51.3 29.3,4.9 56.4,-21.9 51.5,-51 -4.5,-26.2 -30.7,-43.4 -56,-36.6 z"
     id="path872"
     style="fill:#ffffff;stroke:none;stroke-width:0.1;fill-opacity:1" />
  <path
     d="m 110.3,280.2 c -11.3,11.2 -20.9,21.4 -21.4,22.7 -1.7,4.2 0.6,7.4 8.9,12.8 45.8,29.9 105.8,33.9 154.7,10.3 10.2,-4.9 21.2,-11.6 25.3,-15.3 1.5,-1.4 2.2,-3.2 2.2,-5.6 0,-3.4 -1.3,-4.9 -20.7,-23.8 -11.5,-11.2 -21.9,-20.6 -23.2,-20.9 -1.7,-0.5 -4.5,0.4 -9.5,2.9 -13.6,6.8 -23,9.5 -36.7,10.4 -16.2,1 -35.1,-3.1 -48.4,-10.6 -3,-1.7 -6.7,-3.1 -8.1,-3.1 -2.2,0 -6.8,4.1 -23.1,20.2 z"
     id="path874"
     style="fill:#ffffff;stroke:none;stroke-width:0.1;fill-opacity:1" />
</svg>
