<?xml version="1.0" encoding="UTF-8" standalone="no"?>
<svg
   version="1.0"
   width="256.000000pt"
   height="256.000000pt"
   viewBox="0 0 256.000000 256.000000"
   preserveAspectRatio="xMidYMid meet"
   id="svg880"
   sodipodi:docname="android-chrome-256x256.svg"
   inkscape:version="1.1.2 (0a00cf5339, 2022-02-04)"
   xmlns:inkscape="http://www.inkscape.org/namespaces/inkscape"
   xmlns:sodipodi="http://sodipodi.sourceforge.net/DTD/sodipodi-0.dtd"
   xmlns="http://www.w3.org/2000/svg"
   xmlns:svg="http://www.w3.org/2000/svg">
  <defs
     id="defs884" />
  <sodipodi:namedview
     id="namedview882"
     pagecolor="#ffffff"
     bordercolor="#666666"
     borderopacity="1.0"
     inkscape:pageshadow="2"
     inkscape:pageopacity="0.0"
     inkscape:pagecheckerboard="true"
     inkscape:document-units="pt"
     showgrid="false"
     inkscape:snap-object-midpoints="true"
     inkscape:zoom="1.6398134"
     inkscape:cx="170.75114"
     inkscape:cy="193.31468"
     inkscape:window-width="1920"
     inkscape:window-height="1008"
     inkscape:window-x="0"
     inkscape:window-y="40"
     inkscape:window-maximized="1"
     inkscape:current-layer="layer1" />
  <g
     inkscape:groupmode="layer"
     id="layer3"
     inkscape:label="a"
     style="display:none">
    <rect
       style="opacity:1;fill:#000000;fill-opacity:1;stroke:#ffffff;stroke-width:0.112793;stroke-miterlimit:4;stroke-dasharray:none"
       id="rect2527"
       width="410.62863"
       height="304.9884"
       x="-36.241066"
       y="-29.00494" />
  </g>
  <g
     inkscape:groupmode="layer"
     id="layer1"
     inkscape:label="fondo"
     style="display:inline">
    <path
       d="m 150.50447,24.39518 c -10.60105,1.467735 -60.936968,12.394201 -68.106023,14.840426 -26.464494,9.05103 -43.014333,27.153085 -47.742859,52.26765 -1.067731,5.46324 -1.296531,12.638824 -1.372798,42.156604 -0.07627,31.23012 0.07627,36.28565 1.296532,42.23812 2.059196,10.19261 4.957325,17.77591 9.838384,25.52227 13.346644,21.3637 36.760477,32.94249 60.784434,30.08857 9.15199,-1.06004 63.75883,-12.47575 70.77535,-14.7589 24.55783,-8.07253 42.02287,-28.86545 46.44633,-55.36621 1.44906,-8.72485 2.21173,-50.3922 1.144,-66.863438 -0.9152,-15.5743 -1.98293,-20.466747 -6.55893,-30.740884 -7.01652,-15.411212 -19.44796,-28.131578 -34.01487,-34.49176 -9.99092,-4.403203 -22.1173,-6.1971 -32.48955,-4.892448 z"
       id="path874-6"
       style="opacity:1;fill:#ffffff;stroke:none;stroke-width:0.0788596"
       sodipodi:nodetypes="ccccccccccccc" />
  </g>
  <g
     inkscape:groupmode="layer"
     id="layer2"
     inkscape:label="logo"
     style="display:inline">
    <g
       transform="matrix(0.1,0,0,-0.1,0,256)"
       fill="#000000"
       stroke="none"
       id="g878">
      <path
         d="M 1573,2550 C 1434,2532 774,2398 680,2368 333,2257 116,2035 54,1727 40,1660 37,1572 36,1210 35,827 37,765 53,692 80,567 118,474 182,379 357,117 664,-25 979,10 c 120,13 836,153 928,181 322,99 551,354 609,679 19,107 29,618 15,820 -12,191 -26,251 -86,377 -92,189 -255,345 -446,423 -131,54 -290,76 -426,60 z m 417,-939 c 0,-458 -1,-490 -17,-495 -10,-3 -90,-19 -178,-36 -88,-16 -170,-32 -182,-35 -23,-5 -23,-6 -23,-199 V 651 l -57,-12 c -32,-6 -258,-51 -503,-99 l -445,-87 -3,490 c -1,270 0,492 2,494 2,2 82,20 177,38 96,19 184,37 197,40 22,5 22,6 22,200 v 194 l 33,6 c 17,4 232,46 477,95 245,48 457,88 473,89 l 27,1 z"
         id="path874"
         style="fill:#305dff;fill-opacity:1" />
      <path
         d="m 1270,1564 c -146,-29 -268,-53 -272,-53 -5,-1 -8,-129 -8,-286 0,-235 2,-285 14,-285 12,0 497,92 554,105 l 22,5 v 285 285 l -22,-1 c -13,-1 -142,-25 -288,-55 z"
         id="path876"
         style="stroke-width:0.99999998;stroke-miterlimit:4;stroke-dasharray:none;fill:#305dff;fill-opacity:1" />
    </g>
  </g>
</svg>
